# xmcd
#
# Track frame offsets: 
#        150
#        14420
#        25715
#        37465
#        51168
#        63998
#        77393
#        91144
#        103890
#        117044
#        129722
#        143387
#        155649
#        167326
#        178572
#        190128
#        201609
#        229741
#        241877
#        256431
#        267010
#        280519
#        294621
#        310300
#
# Disc length: 4370 seconds
#
# Revision: 0
# Processed by: cddbd v1.5.2PL0 Copyright (c) Steve Scherf et al.
# Submitted via: ExactAudioCopy v0.99pb3
#
DISCID=4c111018
DTITLE=BB King - Best Of The Early Years
DYEAR=2007
DGENRE=Blues
TTITLE0=B.B. Boogie (1950)
TTITLE1=She's Dynamite (1951)
TTITLE2=Shake It Up And Go (1952)
TTITLE3=3 O'Clock Blues (1951)
TTITLE4=Please Love Me (1953)
TTITLE5=Woke Up This Morning (1953)
TTITLE6=You Upset Me Baby (1954)
TTITLE7=Every Day I Have The Blues (1955)
TTITLE8=When My Heart Beats Like A Hammer (1954)
TTITLE9=Ten Long Years (1955)
TTITLE10=Sweet Little Angel (1956)
TTITLE11=Don't Look Now, But I've Got The Blues (1958)
TTITLE12=Early In The Morning (1957)
TTITLE13=Days Of Old (1958)
TTITLE14=Mean Old Frisco (1959)
TTITLE15=Catfish Blues Aka Fishin' After Me (1960)
TTITLE16=Sweet Sixteen Pts 1 and 2 (1960)
TTITLE17=I'll Survive (1960)
TTITLE18=Downhearted Aka How Blue Can You Get (1963)
TTITLE19=Bad Case Of Love (1961)
TTITLE20=Rock Me Baby (1964)
TTITLE21=Blues Stay Away From Me (1966)
TTITLE22=Five Long Years (1966)
TTITLE23=That Evil Child (1971)
EXTD=
EXTT0=
EXTT1=
EXTT2=
EXTT3=
EXTT4=
EXTT5=
EXTT6=
EXTT7=
EXTT8=
EXTT9=
EXTT10=
EXTT11=
EXTT12=
EXTT13=
EXTT14=
EXTT15=
EXTT16=
EXTT17=
EXTT18=
EXTT19=
EXTT20=
EXTT21=
EXTT22=
EXTT23=
PLAYORDER=
